<?xml version="1.0" encoding="UTF-8"?>
<svg width="128" height="128" viewBox="0 0 128 128" fill="none" xmlns="http://www.w3.org/2000/svg">
    <!-- Chat bubble -->
    <rect x="16" y="36" width="96" height="72" rx="8" fill="#4D4D4D"/>
    <path d="M16 44C16 39.5817 19.5817 36 24 36H104C108.418 36 112 39.5817 112 44V100C112 104.418 108.418 108 104 108H32L16 124V44Z" fill="#4D4D4D"/>
    
    <!-- Robot head -->
    <rect x="36" y="48" width="56" height="48" rx="4" fill="#2D2D2D"/>
    
    <!-- Eyes -->
    <circle cx="56" cy="68" r="6" fill="#4CAF50"/>
    <circle cx="72" cy="68" r="6" fill="#4CAF50"/>
    
    <!-- Mouth -->
    <path d="M52 84C52 80.134 57.3726 77 64 77C70.6274 77 76 80.134 76 84" stroke="#4CAF50" stroke-width="4" stroke-linecap="round"/>
    
    <!-- Antenna -->
    <rect x="60" y="28" width="8" height="8" rx="4" fill="#4CAF50"/>
    <rect x="62" y="32" width="4" height="4" rx="2" fill="#2D2D2D"/>
</svg>
